<svg xmlns="http://www.w3.org/2000/svg" viewBox="0 0 26 26" id="Mail"><path d="M13.002 0C5.828 0 0 5.824 0 12.998 0 20.172 5.828 26 13.002 26S26 20.172 26 12.998 20.176 0 13.002 0zm0 1A11.99 11.99 0 0 1 25 12.998c0 6.633-5.365 12-11.998 12-6.633 0-12.002-5.367-12.002-12S6.369 1 13.002 1zm-6.11 8.008 6.118 4.847 6.107-4.847H6.893zm-.876.582v7.402h13.968V9.594l-6.666 5.293a.497.497 0 0 1-.617 0L6.016 9.59z" color="#000" font-family="sans-serif" font-weight="400" overflow="visible" style="line-height:normal;text-indent:0;text-align:start;text-decoration-line:none;text-decoration-style:solid;text-decoration-color:#000;text-transform:none;block-progression:tb;isolation:auto;mix-blend-mode:normal" fill="#f4d03f" class="color000000 svgShape"></path></svg>