<svg xmlns="http://www.w3.org/2000/svg" viewBox="0 0 32 32" id="PlayButton"><circle cx="16" cy="16" r="15" fill="#eef7fd" class="coloreef5fd svgShape"></circle><circle cx="16" cy="16" r="15" fill="#eef7fd" class="coloreef5fd svgShape"></circle><path fill="#e5eaed" d="M31,16A15,15,0,0,0,16,1V31A15,15,0,0,0,31,16Z" class="colord7e2f2 svgShape"></path><path fill="#f4d03f" d="M23.6,13.32,13.08,8.06a3,3,0,0,0-4.34,2.68V21.26a3,3,0,0,0,1.42,2.55,3,3,0,0,0,1.58.45,2.93,2.93,0,0,0,1.34-.32L23.6,18.68a3,3,0,0,0,0-5.36Z" class="colorff9797 svgShape"></path><path fill="#e4cf79" d="M23.6,13.32,16,9.52v13l7.6-3.8a3,3,0,0,0,0-5.36Z" class="colore47979 svgShape"></path></svg>