<svg xmlns="http://www.w3.org/2000/svg" fill="none" viewBox="0 0 101 100" id="Plus"><path fill="url(#a)" d="M50.5 28.5A4.5 4.5 0 0 1 55 33v12.5h12.5a4.5 4.5 0 1 1 0 9H55V67a4.5 4.5 0 1 1-9 0V54.5H33.5a4.5 4.5 0 1 1 0-9H46V33a4.5 4.5 0 0 1 4.5-4.5Z"></path><path fill="url(#b)" fill-rule="evenodd" d="M92.5 50c0 23.196-18.804 42-42 42s-42-18.804-42-42 18.804-42 42-42 42 18.804 42 42Zm-9 0c0 18.225-14.775 33-33 33s-33-14.775-33-33 14.775-33 33-33 33 14.775 33 33Z" clip-rule="evenodd"></path><defs><linearGradient id="a" x1="8.5" x2="92.5" y1="8" y2="92" gradientUnits="userSpaceOnUse"><stop stop-color="#ffcc00" class="stopColor0074ff svgShape"></stop><stop offset="1" stop-color="#f4d03f" class="stopColor6d4ee9 svgShape"></stop></linearGradient><linearGradient id="b" x1="8.5" x2="92.5" y1="8" y2="92" gradientUnits="userSpaceOnUse"><stop stop-color="#ffcc00" class="stopColor0074ff svgShape"></stop><stop offset="1" stop-color="#f4d03f" class="stopColor6d4ee9 svgShape"></stop></linearGradient></defs></svg>